<?xml version="1.0" standalone="no"?>
<!DOCTYPE svg PUBLIC "-//W3C//DTD SVG 20010904//EN" "http://www.w3.org/TR/2001/REC-SVG-20010904/DTD/svg10.dtd">
<svg version="1.0" xmlns="http://www.w3.org/2000/svg" width="260.000000pt" height="260.000000pt" viewBox="0 0 260.000000 260.000000" preserveAspectRatio="xMidYMid meet">
    <metadata>
        Created by potrace 1.11, written by Peter Selinger 2001-2013
    </metadata>
    <g transform="translate(0.000000,260.000000) scale(0.100000,-0.100000)" fill="#000000" stroke="none">
        <path
            d="M1618 2502 c-39 -3 -44 -10 -52 -72 -3 -19 -7 -46 -10 -60 -3 -14 -7
-41 -10 -60 -9 -53 -16 -92 -23 -125 -4 -16 -6 -34 -5 -38 1 -5 -2 -25 -7 -45
-6 -20 -11 -52 -13 -69 -2 -28 -6 -33 -28 -34 -445 -11 -636 -20 -700 -34 -37
-8 -153 -64 -158 -77 -2 -5 -8 -8 -13 -8 -22 0 -136 -129 -164 -185 -17 -33
-32 -62 -35 -65 -3 -3 -6 -12 -7 -20 -1 -8 -5 -36 -11 -61 -16 -82 -4 -212 25
-256 8 -13 12 -23 9 -23 -24 0 123 -170 159 -184 8 -3 15 -10 15 -16 0 -6 4
-8 10 -5 6 3 10 2 10 -2 0 -5 26 -22 58 -38 31 -16 60 -33 63 -38 3 -5 8 -8
10 -6 7 5 104 -35 111 -45 4 -6 8 -8 8 -4 0 4 13 2 30 -3 17 -6 27 -16 23 -22
-3 -6 -1 -7 6 -3 12 8 82 -13 92 -27 3 -5 9 -8 13 -8 20 3 26 0 21 -9 -3 -5 0
-7 8 -4 17 6 117 -71 117 -90 0 -7 6 -19 14 -25 8 -7 15 -24 15 -39 0 -15 2
-37 5 -50 3 -12 1 -22 -4 -22 -4 0 -6 -9 -3 -19 7 -29 -40 -121 -82 -160 -112
-102 -319 -125 -475 -53 -69 31 -128 104 -134 165 -2 18 -7 39 -10 48 -4 9 -6
20 -5 25 1 5 1 19 0 32 -1 22 -2 22 -156 22 -117 0 -155 -3 -156 -12 -5 -42
-3 -145 2 -142 7 4 18 -41 22 -83 1 -11 5 -19 9 -17 7 5 23 -36 20 -49 -1 -5
2 -6 8 -2 5 3 10 0 10 -8 0 -7 8 -22 18 -33 72 -82 101 -112 104 -108 2 2 17
-8 32 -21 16 -14 36 -25 44 -25 8 0 12 -6 9 -14 -4 -10 -1 -13 8 -10 7 3 32
-4 56 -15 23 -12 51 -21 61 -21 10 0 18 -3 18 -7 0 -5 19 -9 42 -10 24 -2 44
-6 46 -11 1 -4 23 -5 48 -3 32 2 49 -1 55 -10 6 -9 9 -10 9 -2 0 13 18 12 39
-1 10 -6 12 -5 7 3 -5 8 6 11 41 10 26 0 71 2 98 6 28 5 58 8 68 9 9 0 17 4
17 9 0 5 9 7 20 4 12 -3 18 -1 14 5 -5 7 2 9 19 6 15 -3 24 -1 21 3 -5 8 3 11
22 8 4 0 10 3 13 8 11 15 62 34 73 27 6 -4 8 -2 5 3 -7 11 20 28 38 24 6 -2 7
1 3 5 -4 4 0 13 10 20 13 9 19 9 24 1 5 -8 8 -4 8 8 0 20 37 52 53 47 5 -1 6
2 3 6 -3 5 6 22 20 38 14 16 29 39 34 52 5 12 17 22 27 22 15 0 15 2 4 9 -12
8 -12 13 2 34 15 23 34 101 29 120 -1 4 1 7 6 7 9 0 10 153 0 160 -3 3 -8 19
-10 35 -2 17 -16 55 -31 86 -70 144 -215 247 -480 343 -104 38 -192 80 -214
102 -8 7 -19 17 -26 21 -29 19 -60 78 -62 119 -3 48 18 134 36 145 6 3 11 10
12 15 1 5 6 8 10 6 5 -1 6 2 3 7 -8 13 56 72 72 66 7 -2 11 -1 7 4 -7 12 54
43 68 34 6 -4 7 -1 2 7 -6 10 -3 12 13 8 12 -3 23 -1 24 4 2 6 61 11 136 13
73 2 136 6 141 10 5 3 12 2 15 -3 3 -5 28 -7 56 -6 38 3 49 0 44 -9 -4 -7 2
-3 14 7 12 11 22 14 22 8 0 -7 10 -8 30 -2 19 5 30 5 30 -1 0 -6 4 -8 9 -4 8
4 9 -38 1 -55 -3 -6 -3 -8 -14 -80 -5 -30 -10 -64 -12 -75 -2 -11 -8 -45 -14
-75 -5 -30 -12 -68 -15 -85 -3 -16 -7 -43 -9 -60 -2 -16 -5 -34 -6 -40 -5 -23
1 -43 16 -49 10 -4 13 -2 8 7 -6 9 -5 9 8 0 8 -7 17 -11 20 -8 9 9 88 11 88 3
0 -5 8 -4 18 1 10 5 24 6 32 1 8 -5 22 -4 32 1 12 7 18 6 18 -1 0 -7 6 -8 19
-1 10 6 21 7 25 4 8 -9 46 -12 46 -4 0 6 68 5 120 -2 14 -2 33 0 42 5 9 5 19
4 23 -2 3 -5 11 -7 18 -4 24 9 87 10 87 2 0 -5 8 -4 19 1 10 6 21 8 24 4 10
-9 51 -10 70 -1 10 5 17 5 17 -1 0 -5 14 -6 34 -1 19 4 37 6 40 3 5 -5 21 68
32 142 14 97 20 90 -81 92 -49 2 -169 3 -267 3 -164 -1 -176 1 -173 17 2 10 4
18 5 18 1 0 3 16 5 35 1 19 3 41 4 48 0 7 6 10 12 6 8 -4 8 -1 1 13 -8 14 -7
27 3 46 8 15 9 27 4 27 -6 0 -6 6 0 18 9 17 11 24 11 43 0 5 5 7 10 4 6 -3 10
-1 10 6 0 8 5 7 17 -2 11 -10 14 -10 9 -1 -4 6 -2 12 3 12 6 0 11 -6 11 -12 0
-8 3 -9 8 -3 9 12 32 13 51 1 10 -6 12 -5 7 2 -10 16 7 15 23 0 8 -8 11 -8 8
-2 -5 8 7 12 33 12 29 1 38 -3 33 -11 -5 -9 -3 -9 8 -1 8 6 27 11 43 12 26 2
27 0 15 -16 -13 -16 -12 -16 7 1 24 20 118 22 107 3 -3 -6 0 -5 8 2 7 6 21 12
31 12 10 0 18 7 18 16 0 8 3 13 8 10 4 -2 6 13 4 35 -2 21 0 39 4 39 5 0 9 12
10 28 0 15 2 45 5 67 l4 40 -188 5 c-104 3 -190 3 -192 0 -2 -3 -18 -4 -37 -4
-38 1 -38 -2 -17 121 7 46 17 79 23 76 5 -4 6 -1 2 6 -10 16 1 61 15 61 6 0 7
-5 3 -12 -5 -7 -3 -8 7 -3 22 14 60 15 52 2 -5 -9 -3 -9 8 -1 17 13 327 13
348 0 9 -6 12 -5 8 1 -4 5 6 10 23 10 18 0 27 -4 23 -11 -5 -8 -2 -7 8 0 8 6
23 10 34 10 17 -2 20 4 22 37 1 22 5 47 8 56 4 9 9 39 11 66 2 28 6 56 9 63 3
8 -9 12 -43 13 -229 2 -725 3 -754 1z"/>
    </g>
</svg>
